<?xml version="1.0" encoding="iso-8859-1"?>
<!-- Generator: Adobe Illustrator 19.0.0, SVG Export Plug-In . SVG Version: 6.00 Build 0)  -->
<svg version="1.1" id="Layer_1" xmlns="http://www.w3.org/2000/svg" xmlns:xlink="http://www.w3.org/1999/xlink" x="0px" y="0px"
	 viewBox="0 0 512 512" style="enable-background:new 0 0 512 512;" xml:space="preserve">
<g>
	<path style="fill:#E21B1B;" d="M281.04,129.624v-15.008c24.424-13.832,33.008-44.84,19.176-69.256
		c-13.832-24.424-44.84-33.008-69.256-19.176s-33.008,44.84-19.176,69.256c4.536,8.016,11.168,14.64,19.176,19.176v15.008
		c-47.352,2.216-71.432,34.232-71.432,55.752v17.672h192.944v-17.672C352.472,163.856,328.392,131.832,281.04,129.624z"/>
	<path style="fill:#E21B1B;" d="M121.512,419v-14.976c24.424-13.832,33.008-44.84,19.176-69.256
		c-13.832-24.424-44.84-33.008-69.256-19.176c-24.424,13.832-33.008,44.84-19.176,69.256c4.536,8.016,11.168,14.64,19.176,19.176v15
		C24.08,421.216,0,453.232,0,474.752v17.672h192.944v-17.672C192.944,453.232,168.864,421.216,121.512,419z"/>
	<path style="fill:#E21B1B;" d="M440.568,419v-14.976c24.424-13.832,33.008-44.84,19.176-69.256
		c-13.832-24.424-44.84-33.008-69.256-19.176s-33.008,44.84-19.176,69.256c4.536,8.016,11.168,14.64,19.176,19.176v15
		c-47.352,2.216-71.432,34.232-71.432,55.752v17.648H512v-17.672C512,453.232,487.92,421.216,440.568,419z"/>
</g>
<rect x="240" y="250.784" width="32" height="144"/>
<rect x="184" y="306.8" width="144" height="32"/>
<g>
</g>
<g>
</g>
<g>
</g>
<g>
</g>
<g>
</g>
<g>
</g>
<g>
</g>
<g>
</g>
<g>
</g>
<g>
</g>
<g>
</g>
<g>
</g>
<g>
</g>
<g>
</g>
<g>
</g>
</svg>
