<?xml version="1.0" standalone="no"?>
<svg version="1.0" xmlns="http://www.w3.org/2000/svg"
 width="500.000000pt" height="500.000000pt" viewBox="0 0 500.000000 500.000000"
 preserveAspectRatio="xMidYMid meet">
	<g transform="translate(0.000000,500.000000) scale(0.100000,-0.100000)"
	fill="#000000" stroke="none">
		<path d="M0 2500 l0 -2500 2500 0 2500 0 0 1645 c0 1054 -3 1645 -10 1645 -5
		0 -7 7 -4 15 4 10 0 15 -14 15 -11 0 -22 -5 -24 -12 -3 -7 -12 -9 -22 -5 -9 4
		-14 11 -11 17 3 5 -1 10 -9 10 -18 0 -34 42 -17 48 27 9 -4 52 -37 52 -34 0
		-52 11 -52 31 0 11 -7 19 -16 19 -8 0 -12 -4 -9 -10 10 -16 -15 -12 -32 5 -11
		11 -13 26 -9 50 4 22 3 35 -4 35 -5 0 -10 -18 -10 -40 0 -22 -4 -40 -10 -40
		-5 0 -10 11 -10 24 0 13 -7 26 -15 30 -19 7 -20 26 -1 26 12 0 12 7 3 38 -6
		20 -14 39 -17 42 -4 3 -6 28 -6 55 0 34 -4 49 -12 47 -7 -1 -16 13 -20 30 -7
		33 -7 33 -12 -12 l-5 -45 -46 0 c-45 0 -84 -19 -74 -35 3 -5 -4 -11 -15 -15
		-11 -3 -20 -11 -20 -16 0 -5 -7 -9 -15 -9 -8 0 -15 5 -15 11 0 5 -5 7 -10 4
		-6 -4 -8 -11 -5 -16 3 -5 -4 -19 -16 -31 l-22 -23 7 30 c7 30 7 30 -9 8 -13
		-19 -13 -26 -3 -43 17 -27 36 -26 40 3 5 36 40 29 51 -12 9 -36 -4 -56 -32
		-46 -18 7 -31 -12 -31 -48 0 -18 -4 -26 -11 -21 -7 4 -9 21 -6 43 5 31 4 34
		-7 19 -16 -22 -66 -24 -66 -3 0 8 -4 15 -10 15 -14 0 -13 -23 2 -38 18 -18 19
		-48 3 -62 -20 -17 -19 -32 1 -28 12 2 18 -6 21 -26 4 -29 4 -29 -42 -24 -45 6
		-46 5 -43 -21 2 -21 9 -27 38 -31 33 -5 35 -8 38 -45 l3 -40 -41 0 c-22 -1
		-40 3 -40 7 0 4 -7 8 -15 8 -18 0 -19 -12 -2 -29 10 -11 8 -12 -10 -6 -24 7
		-33 -10 -10 -18 9 -3 9 -8 -2 -21 -8 -9 -16 -14 -19 -11 -3 3 -10 1 -17 -5 -8
		-6 -11 0 -10 23 0 46 -26 41 -40 -8 -6 -22 -13 -34 -16 -28 -2 7 -4 -49 -4
		-125 0 -75 -4 -146 -9 -157 -5 -11 -11 -29 -13 -40 -2 -11 -10 -26 -18 -34
		-10 -10 -8 3 6 50 17 53 21 91 21 221 0 87 4 155 9 153 4 -3 10 -1 14 5 6 10
		-7 14 -32 11 -6 -1 -14 3 -18 9 -7 11 -120 -44 -143 -70 -8 -8 -11 -10 -8 -4
		3 6 -1 11 -8 11 -7 0 -12 -10 -12 -21 1 -12 -5 -20 -11 -19 -7 2 -12 0 -10 -5
		1 -4 -3 -8 -8 -10 -6 -1 -11 7 -13 18 -3 19 -9 21 -59 18 -39 -2 -58 1 -60 10
		-3 6 0 12 7 12 6 0 8 5 4 11 -4 8 -8 8 -13 0 -4 -6 -12 -2 -20 11 -12 19 -11
		20 8 15 25 -6 38 10 21 26 -10 9 -11 9 -6 0 5 -8 2 -11 -7 -7 -8 3 -18 0 -22
		-6 -4 -6 -13 -2 -25 12 -14 18 -16 26 -7 38 10 13 10 13 -4 2 -13 -10 -19 -9
		-29 3 -10 12 -9 15 5 15 10 0 15 3 12 6 -3 4 3 18 13 32 11 13 20 32 20 41 0
		13 -2 13 -9 2 -5 -7 -14 -10 -20 -7 -18 11 -13 34 9 41 16 5 18 12 13 38 -8
		45 -13 46 -13 4 0 -42 -23 -51 -35 -14 -6 20 -8 20 -12 3 -3 -10 1 -22 8 -27
		10 -6 10 -13 1 -33 -6 -14 -9 -33 -6 -41 4 -8 1 -15 -4 -15 -6 0 -12 19 -14
		43 -3 38 -6 42 -30 45 -23 3 -28 -1 -28 -17 0 -27 -16 -27 -23 -1 -3 13 0 20
		8 20 8 0 15 10 17 23 2 15 9 21 21 19 14 -2 17 5 17 37 0 34 -2 38 -20 34 -14
		-4 -20 -14 -20 -33 0 -22 -4 -27 -22 -26 -21 1 -24 7 -20 35 1 5 11 13 22 16
		13 4 20 15 20 31 0 17 -5 24 -20 24 -15 0 -20 7 -20 26 0 21 4 24 20 19 22 -7
		24 0 20 65 -1 19 -7 38 -13 42 -18 11 -37 -3 -37 -28 0 -13 -4 -24 -10 -24 -5
		0 -10 24 -10 54 0 47 -3 55 -22 61 -41 13 -48 13 -42 4 3 -5 10 -7 15 -4 5 4
		9 2 9 -3 0 -5 -10 -14 -22 -20 -13 -6 -17 -11 -10 -11 7 -1 10 -6 6 -12 -4 -8
		-11 -4 -18 10 l-12 21 -31 -27 c-16 -16 -28 -33 -26 -40 2 -6 -7 -29 -20 -51
		-14 -21 -46 -79 -71 -129 -25 -51 -50 -95 -56 -98 -6 -4 -19 -1 -28 7 -29 24
		-83 37 -217 53 -193 23 -464 29 -664 16 -239 -16 -345 -36 -422 -78 -4 -2 -30
		42 -59 99 -29 57 -64 120 -77 141 -14 22 -23 41 -20 43 4 4 205 -196 218 -218
		4 -7 10 -10 12 -8 2 3 37 87 77 188 40 100 78 189 84 197 9 12 32 -9 123 -108
		62 -67 129 -141 149 -164 21 -24 40 -43 43 -43 4 0 29 43 56 95 27 52 52 95
		55 95 3 0 30 -43 59 -96 44 -77 57 -93 67 -82 7 7 74 81 149 163 75 83 142
		150 148 150 6 0 35 -58 64 -130 29 -71 65 -159 80 -193 l26 -64 98 98 c55 54
		99 104 99 111 0 6 31 39 68 72 67 59 137 163 146 217 9 48 -12 31 -58 -46 -26
		-44 -53 -83 -60 -87 -8 -5 -68 -57 -134 -117 -175 -157 -152 -155 -202 -18
		-23 64 -51 135 -61 156 -25 52 -24 57 11 91 l29 28 12 -29 c6 -16 22 -60 35
		-99 14 -38 32 -89 41 -113 l15 -43 87 83 c90 86 246 228 264 240 6 3 17 0 24
		-8 23 -22 71 -17 98 11 21 20 25 33 24 77 -1 50 -1 51 -10 21 -20 -68 -91 -80
		-127 -21 -14 24 -14 28 3 55 11 15 19 31 18 34 -3 10 61 -3 87 -18 25 -14 25
		-14 3 2 -28 21 -29 42 -3 50 13 4 20 15 20 31 0 25 11 26 68 8 14 -4 15 5 2
		26 -6 10 -10 11 -10 3 0 -7 -9 -13 -20 -13 -15 0 -20 7 -20 25 0 14 -4 25 -10
		25 -5 0 -10 15 -9 33 0 26 2 29 9 12 7 -16 9 -13 15 22 4 24 11 40 15 38 5 -3
		11 1 13 7 3 7 6 -1 6 -19 1 -39 13 -48 41 -31 23 15 25 30 8 59 -10 17 -10 23
		-1 26 7 3 13 11 13 19 0 8 10 14 25 14 23 0 25 4 25 40 l0 41 78 -5 c42 -2 89
		-7 103 -11 18 -4 28 -2 31 7 4 10 -8 13 -44 15 -59 2 -63 5 -48 32 8 16 20 21
		50 21 39 0 40 1 40 33 0 32 -1 33 -32 29 -28 -4 -31 -3 -21 10 7 8 10 18 6 21
		-3 4 6 7 21 7 15 0 25 4 22 9 -3 4 6 6 19 3 21 -4 25 -1 25 22 0 37 45 37 62
		0 l12 -26 8 23 c5 13 5 26 -2 33 -18 18 -12 46 11 46 11 0 18 4 15 9 -3 5 -2
		37 2 70 l9 61 -2079 0 -2078 0 0 -2500z m4120 2435 c0 -16 -42 -30 -65 -21
		-24 9 -17 22 18 33 36 11 47 8 47 -12z m-120 -45 c0 -5 -2 -10 -4 -10 -3 0 -8
		5 -11 10 -3 6 -1 10 4 10 6 0 11 -4 11 -10z m0 -76 c0 -8 -5 -12 -10 -9 -6 4
		-8 11 -5 16 9 14 15 11 15 -7z m-133 -30 c-3 -3 -12 -4 -19 -1 -8 3 -5 6 6 6
		11 1 17 -2 13 -5z m-130 -136 c-3 -8 -6 -5 -6 6 -1 11 2 17 5 13 3 -3 4 -12 1
		-19z m-82 -78 c3 -5 1 -10 -4 -10 -6 0 -11 5 -11 10 0 6 2 10 4 10 3 0 8 -4
		11 -10z m93 3 c-10 -2 -26 -2 -35 0 -10 3 -2 5 17 5 19 0 27 -2 18 -5z m-1199
		-117 c17 -18 22 -32 17 -50 -8 -34 -49 -60 -81 -52 -27 7 -60 59 -49 79 30 53
		76 62 113 23z m1071 15 c0 -6 -4 -13 -10 -16 -5 -3 -10 1 -10 9 0 9 5 16 10
		16 6 0 10 -4 10 -9z m90 -51 c0 -5 -5 -10 -11 -10 -5 0 -7 5 -4 10 3 6 8 10
		11 10 2 0 4 -4 4 -10z m-527 -28 c23 -20 22 -53 -4 -86 -23 -29 -36 -31 -72
		-15 -37 17 -52 56 -32 86 28 42 69 48 108 15z m-1271 -9 c10 -9 18 -25 18 -36
		0 -26 -38 -67 -62 -67 -26 0 -58 36 -58 64 0 50 63 75 102 39z m683 -239 c44
		-80 88 -164 97 -185 l18 -40 -28 -24 c-20 -18 -29 -21 -35 -12 -4 7 -37 64
		-72 127 -36 63 -68 116 -72 117 -5 1 -36 -48 -71 -111 -88 -158 -82 -153 -112
		-121 l-25 26 29 52 c15 29 59 112 98 185 38 72 75 132 81 132 7 -1 48 -66 92
		-146z m885 96 c0 -5 -4 -10 -10 -10 -5 0 -10 5 -10 10 0 6 5 10 10 10 6 0 10
		-4 10 -10z m-1215 -381 c44 -48 85 -87 90 -88 6 0 39 55 75 124 36 69 69 124
		75 122 5 -2 38 -58 73 -125 57 -109 65 -121 80 -110 15 11 98 98 379 398 41
		43 65 62 71 55 6 -5 32 -94 59 -197 l48 -188 -32 -31 -31 -32 -31 95 c-16 52
		-35 116 -42 142 -6 25 -15 49 -19 51 -5 3 -101 -94 -215 -215 -114 -121 -210
		-220 -213 -220 -4 0 -34 50 -66 111 -48 89 -62 107 -72 97 -7 -7 -36 -57 -64
		-110 -28 -54 -53 -98 -55 -98 -4 0 -163 165 -295 308 -67 72 -126 132 -131
		132 -5 0 -27 -60 -50 -132 -23 -73 -45 -136 -49 -141 -3 -4 -17 4 -30 18 l-23
		25 48 187 c26 104 50 191 52 195 4 7 216 -208 368 -373z m1245 364 c0 -10 -38
		-73 -44 -73 -3 0 -4 9 -3 20 1 11 7 20 14 20 7 0 13 9 13 20 0 11 5 20 10 20
		6 0 10 -3 10 -7z m-2000 -65 c13 -25 13 -31 0 -55 -21 -38 -81 -45 -104 -11
		-22 30 -20 54 5 79 29 29 79 23 99 -13z m1960 -22 c0 -3 -4 -8 -10 -11 -5 -3
		-10 -1 -10 4 0 6 5 11 10 11 6 0 10 -2 10 -4z m0 -46 c0 -14 -5 -18 -17 -13
		-11 4 -13 8 -5 11 7 2 10 8 6 13 -3 5 0 9 5 9 6 0 11 -9 11 -20z m5 -48 c0 -7
		-3 -11 -7 -9 -4 1 -13 -7 -21 -17 -13 -18 -14 -18 -21 -1 -3 10 -4 20 -1 23 3
		3 5 0 5 -8 0 -10 3 -10 15 0 8 7 12 17 8 22 -3 6 0 9 8 6 8 -3 14 -10 14 -16z
		m-1863 -104 c206 -192 261 -239 268 -232 4 5 19 47 34 93 15 46 36 104 47 129
		l20 45 25 -24 c16 -15 24 -31 21 -44 -9 -35 -108 -290 -117 -299 -20 -20 -305
		247 -354 331 -20 34 -36 64 -36 68 0 11 34 -14 92 -67z m1778 18 c0 -2 -7 -9
		-15 -16 -13 -11 -14 -10 -9 4 5 14 24 23 24 12z m50 -227 c0 -6 -4 -7 -10 -4
		-5 3 -10 11 -10 16 0 6 5 7 10 4 6 -3 10 -11 10 -16z m1200 -49 c0 -5 -2 -10
		-4 -10 -3 0 -8 5 -11 10 -3 6 -1 10 4 10 6 0 11 -4 11 -10z m-113 -67 c-3 -10
		-5 -2 -5 17 0 19 2 27 5 18 2 -10 2 -26 0 -35z m93 35 c0 -7 -5 -20 -10 -28
		-8 -12 -10 -9 -10 13 0 15 5 27 10 27 6 0 10 -6 10 -12z m-1270 -23 c14 -19
		14 -19 -2 -6 -16 12 -18 11 -18 -8 0 -11 -4 -21 -10 -21 -5 0 -10 2 -10 5 0 6
		23 56 24 53 1 -2 8 -12 16 -23z m1210 5 c0 -11 -4 -20 -10 -20 -5 0 -10 9 -10
		20 0 11 5 20 10 20 6 0 10 -9 10 -20z m-1173 -142 c-2 -13 -4 -5 -4 17 -1 22
		1 32 4 23 2 -10 2 -28 0 -40z m-571 -38 c139 -11 272 -35 316 -57 15 -7 33
		-23 39 -35 10 -19 9 -20 -7 -13 -142 59 -310 79 -669 79 -315 1 -453 -13 -587
		-58 -63 -21 -68 -21 -68 -5 0 34 175 77 370 92 107 8 488 6 606 -3z m658 0 c2
		-3 2 -24 -1 -48 -4 -32 -10 -42 -24 -42 -11 0 -19 5 -19 10 0 6 -6 10 -12 9
		-29 -3 -35 2 -36 33 0 18 1 35 3 38 4 7 82 7 89 0z m896 -75 c0 -14 -4 -25
		-10 -25 -5 0 -10 11 -10 25 0 14 5 25 10 25 6 0 10 -11 10 -25z m250 15 c0 -5
		24 -11 53 -12 l52 -2 -50 -3 c-27 -3 -55 -9 -62 -15 -9 -7 -13 -7 -13 1 0 6
		-10 12 -22 12 l-23 2 23 4 c12 2 22 9 22 14 0 5 5 9 10 9 6 0 10 -4 10 -10z
		m230 0 c0 -5 -2 -10 -4 -10 -3 0 -8 5 -11 10 -3 6 -1 10 4 10 6 0 11 -4 11
		-10z m-1881 -55 c127 -20 205 -44 209 -66 2 -13 -12 -13 -120 7 -176 32 -324
		44 -553 44 -298 0 -506 -22 -623 -67 -46 -17 -56 -15 -46 10 12 33 147 68 329
		87 143 14 681 4 804 -15z m621 11 c0 -3 -4 -8 -10 -11 -5 -3 -10 -1 -10 4 0 6
		5 11 10 11 6 0 10 -2 10 -4z m810 -21 c0 -17 -4 -23 -14 -19 -8 3 -12 13 -9
		25 7 27 23 24 23 -6z m-763 -7 c-3 -8 -6 -5 -6 6 -1 11 2 17 5 13 3 -3 4 -12
		1 -19z m-183 5 c4 -4 -3 -16 -16 -26 -20 -17 -21 -18 -3 -12 75 26 85 27 139
		2 56 -26 119 -97 146 -164 7 -18 16 -30 21 -28 4 3 5 13 2 22 -4 11 -3 14 6 9
		6 -4 10 -15 9 -24 -2 -11 3 -16 14 -14 12 2 15 -3 11 -18 -7 -25 -12 -25 -30
		-2 -12 15 -13 13 -7 -18 3 -19 9 -36 13 -37 3 -2 5 -31 4 -65 -2 -47 0 -56 6
		-37 23 70 79 154 141 212 63 58 133 97 148 82 11 -10 11 -227 1 -285 -13 -72
		-59 -166 -110 -224 -42 -47 -156 -132 -165 -123 -12 12 80 274 137 391 15 31
		16 36 3 21 -34 -42 -124 -245 -159 -359 -19 -65 -34 -121 -32 -123 2 -2 33 13
		68 32 66 38 158 120 187 167 22 38 62 52 124 44 62 -9 140 -40 164 -67 19 -21
		40 -26 27 -6 -10 16 -14 41 -5 32 4 -4 7 -12 7 -18 1 -7 7 -11 15 -9 11 3 11
		0 0 -13 -11 -13 -10 -19 8 -38 76 -81 81 -233 11 -308 -27 -29 -78 -39 -105
		-21 -34 22 -44 85 -17 114 23 26 58 22 83 -9 20 -26 21 -34 5 -78 -8 -23 36
		26 56 62 43 78 -80 130 -201 84 -100 -38 -159 -103 -298 -327 -45 -72 -88
		-137 -97 -144 -30 -25 -14 -29 36 -10 66 27 214 37 292 21 31 -7 57 -16 57
		-21 0 -4 -19 -11 -42 -15 -70 -11 -110 -46 -199 -171 -97 -135 -156 -192 -244
		-234 -99 -47 -183 -64 -330 -64 -71 0 -147 3 -167 7 l-37 8 6 -34 c10 -67 -44
		-129 -105 -120 -63 10 -94 91 -52 133 26 26 58 25 87 -2 29 -27 29 -39 -1 -67
		-20 -19 -28 -21 -45 -12 -27 15 -27 41 -1 41 11 0 20 -4 20 -10 0 -5 5 -10 11
		-10 6 0 9 10 7 23 -6 44 -78 30 -78 -16 0 -32 29 -57 66 -57 40 0 74 41 74 89
		0 83 -146 133 -253 88 l-38 -16 20 -39 c23 -45 36 -53 70 -41 18 7 22 15 18
		34 -3 16 0 24 7 22 38 -13 -9 -90 -52 -85 -24 3 -40 20 -77 83 -9 15 -13 14
		-40 -9 -65 -56 -131 -71 -260 -57 -16 1 -60 0 -96 -4 -80 -9 -146 10 -199 56
		-31 28 -36 29 -45 14 -40 -68 -52 -80 -79 -80 -36 0 -71 42 -61 74 10 31 23
		25 21 -10 -1 -24 4 -33 22 -40 19 -7 28 -4 46 16 38 40 39 63 5 80 -77 40
		-183 24 -234 -36 -30 -37 -31 -63 -5 -106 16 -26 26 -33 52 -33 38 0 68 25 68
		55 0 47 -72 63 -78 18 -3 -23 12 -31 23 -13 9 15 35 12 35 -5 0 -8 -10 -19
		-21 -26 -18 -9 -25 -7 -47 15 l-26 26 20 27 c26 35 66 41 93 14 47 -47 8 -131
		-61 -133 -45 -1 -65 14 -89 67 -16 35 -16 43 -3 74 12 28 12 36 2 43 -7 4 -16
		8 -19 8 -13 0 -26 46 -18 66 11 31 25 36 40 18 11 -14 10 -18 -5 -30 -22 -16
		-15 -44 11 -44 10 0 38 9 62 20 58 27 138 26 202 -2 l50 -21 21 20 20 21 -21
		7 c-26 8 -54 60 -46 85 10 30 54 60 91 60 39 0 82 -33 109 -84 11 -20 27 -36
		36 -36 8 0 36 -10 61 -23 40 -20 48 -21 64 -10 11 8 38 19 62 25 35 9 47 18
		62 48 42 83 117 105 171 51 16 -16 29 -38 29 -49 0 -25 -37 -72 -57 -72 -11 0
		-8 -6 9 -20 25 -19 25 -19 68 2 53 26 142 29 187 6 54 -27 92 -32 99 -13 4 10
		-1 21 -12 30 -18 13 -18 15 -2 31 14 14 20 15 32 4 9 -7 16 -22 16 -34 0 -23
		-33 -66 -50 -66 -6 0 -10 -4 -10 -9 0 -21 90 18 168 71 31 22 51 29 70 25 80
		-16 215 42 322 137 41 37 103 88 137 113 35 26 61 49 59 51 -8 7 -120 -57
		-171 -98 -138 -111 -167 -129 -255 -158 -49 -17 -90 -28 -90 -26 0 3 32 43 70
		89 l71 84 -7 133 c-8 164 7 319 41 424 13 44 25 98 25 122 0 52 12 48 40 -16
		58 -129 63 -298 16 -483 -13 -52 -22 -96 -20 -98 2 -2 13 18 24 45 11 27 27
		60 35 74 8 14 46 89 83 166 38 78 87 168 109 200 66 97 153 168 238 194 60 19
		63 28 6 19 -81 -12 -139 -44 -205 -112 -64 -66 -142 -202 -186 -324 -13 -35
		-23 -63 -24 -63 -5 0 6 205 14 290 17 158 -9 376 -61 515 l-21 55 -25 -20
		c-33 -26 -98 -26 -141 0 -42 26 -67 68 -81 138 -10 48 -10 64 4 102 8 24 25
		55 37 67 12 13 18 23 13 23 -4 0 0 9 10 20 17 19 17 19 -4 15 -12 -2 -19 0
		-16 6 7 11 39 12 49 2z m1066 -3 c0 -5 -5 -10 -11 -10 -5 0 -7 5 -4 10 3 6 8
		10 11 10 2 0 4 -4 4 -10z m-943 -6 c-3 -3 -12 -4 -19 -1 -8 3 -5 6 6 6 11 1
		17 -2 13 -5z m-2110 -25 c68 -25 106 -88 106 -171 -2 -140 -108 -227 -211
		-174 -17 9 -33 16 -36 16 -8 0 -52 -148 -67 -225 -14 -74 -17 -262 -8 -485 l6
		-134 -27 69 c-68 177 -154 308 -241 367 -50 34 -145 68 -193 68 -31 0 -6 -16
		48 -30 73 -20 158 -82 216 -158 28 -37 85 -134 125 -217 41 -82 81 -161 89
		-175 8 -14 26 -50 40 -80 28 -60 28 -53 -3 90 -24 111 -28 269 -7 345 7 28 23
		73 36 100 l23 50 12 -60 c7 -33 24 -105 39 -160 26 -95 27 -110 25 -302 l-3
		-201 67 -78 c36 -43 64 -80 62 -82 -5 -6 -133 37 -175 58 -19 10 -67 45 -107
		78 -74 62 -210 149 -219 140 -2 -3 21 -25 53 -49 32 -23 95 -76 140 -115 44
		-40 99 -82 122 -94 58 -29 157 -53 191 -45 23 5 37 1 63 -19 29 -22 101 -58
		162 -81 40 -15 -36 -25 -185 -26 -290 -1 -429 69 -582 294 -74 108 -135 163
		-188 172 -102 17 -27 40 125 38 68 -1 119 -7 161 -20 l61 -20 -61 91 c-34 50
		-84 129 -112 176 -66 109 -147 194 -216 225 -87 39 -164 38 -209 -3 -36 -32
		-36 -54 3 -112 30 -44 52 -53 38 -15 -22 58 37 109 81 69 42 -38 9 -114 -49
		-114 -88 0 -137 132 -95 256 23 67 110 154 177 177 27 9 77 17 112 17 l62 0
		41 -55 c23 -30 65 -74 94 -96 64 -51 147 -93 147 -74 0 27 -61 217 -93 287
		-39 88 -99 200 -104 195 -2 -2 13 -39 33 -83 37 -81 125 -336 119 -343 -9 -9
		-107 64 -159 119 -62 64 -99 135 -117 219 -11 56 -9 284 3 296 4 4 30 -6 58
		-21 72 -39 162 -139 204 -226 l35 -73 1 55 c1 139 80 293 173 339 47 24 73 26
		114 10z m1400 -9 c152 -12 256 -35 291 -65 l26 -23 -54 -27 c-54 -27 -165 -52
		-250 -55 -126 -5 -104 6 70 34 78 13 146 28 152 34 50 50 -217 77 -684 69
		-313 -5 -439 -15 -502 -41 l-31 -12 25 -16 c14 -9 92 -26 175 -38 148 -22 163
		-25 153 -35 -6 -6 -210 12 -272 25 -68 14 -136 46 -136 63 0 35 130 72 305 87
		132 11 591 11 732 0z m463 -24 c0 -8 -4 -18 -10 -21 -5 -3 -10 3 -10 14 0 12
		5 21 10 21 6 0 10 -6 10 -14z m31 -19 c-10 -9 -11 -8 -5 6 3 10 9 15 12 12 3
		-3 0 -11 -7 -18z m1544 11 c14 -6 25 -15 25 -20 0 -14 -20 -9 -42 12 -25 23
		-20 25 17 8z m-365 -17 c0 -11 -4 -23 -10 -26 -6 -4 -10 5 -10 19 0 14 5 26
		10 26 6 0 10 -9 10 -19z m336 -27 c-17 -16 -36 -19 -36 -4 0 6 7 10 15 10 8 0
		15 5 15 11 0 5 5 7 10 4 6 -4 5 -12 -4 -21z m-26 -34 c-19 -13 -30 -13 -30 0
		0 6 10 10 23 10 18 0 19 -2 7 -10z m-1526 -25 c-4 -8 -8 -15 -10 -15 -2 0 -4
		7 -4 15 0 8 4 15 10 15 5 0 7 -7 4 -15z m1137 -52 c-9 -16 -10 -15 -11 8 0 14
		3 29 8 33 12 12 14 -22 3 -41z m206 15 c-3 -7 -5 -2 -5 12 0 14 2 19 5 13 2
		-7 2 -19 0 -25z m-460 -10 c-3 -7 -5 -2 -5 12 0 14 2 19 5 13 2 -7 2 -19 0
		-25z m220 -5 c-3 -10 -5 -4 -5 12 0 17 2 24 5 18 2 -7 2 -21 0 -30z m-257 12
		c0 -8 -7 -15 -15 -15 -8 0 -15 7 -15 15 0 8 7 15 15 15 8 0 15 -7 15 -15z
		m-320 -25 c-1 -15 -30 -41 -43 -38 -23 5 -3 47 22 45 12 -1 21 -4 21 -7z m-58
		-81 c-21 -24 -20 -24 -15 5 3 15 10 23 18 20 11 -4 10 -10 -3 -25z m438 16 c0
		-8 -4 -15 -10 -15 -5 0 -10 7 -10 15 0 8 5 15 10 15 6 0 10 -7 10 -15z m283
		-32 c-7 -2 -19 -2 -25 0 -7 3 -2 5 12 5 14 0 19 -2 13 -5z m-213 -88 l-7 -60
		-1 75 c-1 47 2 69 7 60 5 -8 6 -42 1 -75z m213 58 c-7 -2 -21 -2 -30 0 -10 3
		-4 5 12 5 17 0 24 -2 18 -5z m-1128 -13 c3 -5 1 -10 -4 -10 -6 0 -11 5 -11 10
		0 6 2 10 4 10 3 0 8 -4 11 -10z m-1308 -125 c110 -269 291 -666 315 -692 12
		-13 36 -28 55 -35 18 -7 33 -19 33 -28 0 -13 -23 -15 -167 -14 -137 1 -168 3
		-168 15 0 7 21 24 48 36 26 13 47 28 47 35 -1 7 -20 58 -44 113 l-43 100 -168
		0 -168 0 -34 -80 c-44 -105 -42 -131 17 -165 77 -45 63 -52 -103 -55 -81 -1
		-149 1 -152 4 -6 11 9 27 42 44 45 24 60 48 170 292 100 219 140 318 183 448
		21 66 50 100 78 95 8 -2 34 -52 59 -113z m1087 85 c67 -34 98 -78 104 -145 8
		-92 -53 -179 -140 -200 -40 -10 -26 -22 33 -30 64 -9 126 -54 157 -115 51 -98
		-2 -246 -108 -300 -61 -31 -138 -41 -285 -38 -138 3 -139 3 -105 19 20 9 44
		24 53 33 15 15 22 16 53 6 49 -17 155 -7 196 17 75 44 101 163 56 253 -39 77
		-109 110 -235 110 -58 0 -73 -3 -73 -15 0 -11 -13 -15 -54 -15 l-55 0 -3 108
		c-2 59 -2 109 0 112 2 3 8 -3 14 -13 16 -30 57 -40 84 -22 l24 15 -6 -58 -6
		-58 84 7 c137 10 178 46 178 154 0 73 -21 112 -73 136 -44 20 -141 25 -166 10
		-10 -6 -23 -5 -35 2 -12 6 -59 21 -106 33 l-85 23 225 -2 c218 -2 226 -3 274
		-27z m1206 10 c0 -5 -11 -10 -25 -10 -14 0 -25 5 -25 10 0 6 11 10 25 10 14 0
		25 -4 25 -10z m243 -7 c-7 -2 -21 -2 -30 0 -10 3 -4 5 12 5 17 0 24 -2 18 -5z
		m-1007 -39 c-4 -15 -3 -23 3 -20 5 3 11 0 14 -8 3 -8 -1 -17 -9 -20 -8 -3 -12
		-2 -9 3 3 5 -5 17 -17 25 -18 13 -19 16 -5 16 9 0 17 7 17 15 0 8 3 15 6 15 3
		0 3 -12 0 -26z m-41 6 c-12 -20 -43 -31 -51 -18 -4 7 -4 10 1 6 4 -4 17 -1 29
		7 24 18 29 19 21 5z m1013 -13 c2 -10 -3 -17 -12 -17 -10 0 -16 9 -16 21 0 24
		23 21 28 -4z m-215 -44 c-7 -2 -21 -2 -30 0 -10 3 -4 5 12 5 17 0 24 -2 18 -5z
		m-143 -57 c0 -2 -9 -6 -20 -9 -11 -3 -18 -1 -14 4 5 9 34 13 34 5z m70 0 c0
		-3 -4 -8 -10 -11 -5 -3 -10 -1 -10 4 0 6 5 11 10 11 6 0 10 -2 10 -4z m105
		-108 c4 -3 2 -9 -3 -12 -5 -3 -15 1 -21 8 -10 11 -9 14 3 12 9 -1 18 -5 21 -8z
		m-1314 -1460 c0 -7 0 -79 -1 -160 l-1 -147 25 -7 c43 -10 29 -24 -24 -24 -27
		0 -53 0 -57 -1 -4 0 -9 4 -11 10 -2 6 3 11 12 11 14 0 16 18 16 134 0 127 -1
		134 -22 148 l-22 15 29 16 c36 20 55 21 56 5z m269 -148 c0 -132 2 -158 14
		-154 31 12 26 -17 -6 -31 -29 -12 -34 -12 -44 1 -10 12 -15 12 -42 -2 -29 -14
		-35 -14 -66 1 -22 11 -38 28 -45 47 -18 52 -13 78 24 115 31 31 40 35 75 31
		32 -3 40 0 40 13 0 9 3 31 6 48 6 27 3 33 -15 38 -27 7 -27 27 2 41 57 27 57
		26 57 -148z m1062 40 c-3 -69 -1 -120 5 -120 5 0 24 13 43 30 26 22 30 29 18
		30 -10 0 -18 5 -18 10 0 6 25 10 56 10 62 0 72 -19 16 -31 -33 -7 -62 -25 -62
		-40 0 -15 88 -99 104 -99 9 0 16 -5 16 -11 0 -6 -16 -9 -37 -7 -31 2 -43 10
		-68 45 -20 28 -37 42 -50 40 -31 -3 -31 -38 0 -63 l28 -22 -46 0 c-25 0 -51
		-3 -57 -7 -5 -3 -10 0 -10 8 0 8 7 17 15 21 12 4 15 30 15 140 0 125 -1 134
		-20 139 -28 7 -25 21 8 34 49 19 48 20 44 -107z m-3750 -45 c39 -90 69 -148
		86 -162 30 -25 29 -25 -48 -23 -64 2 -70 5 -44 24 18 14 18 16 1 50 -15 33
		-20 36 -61 36 -24 0 -51 3 -60 6 -10 4 -20 -5 -30 -31 -20 -48 -20 -52 4 -60
		36 -12 21 -23 -36 -27 -31 -1 -58 -1 -60 1 -2 3 7 17 21 31 24 25 96 178 124
		263 9 25 18 37 28 35 9 -2 40 -61 75 -143z m1988 132 c16 -8 26 -23 28 -41 5
		-43 -13 -54 -32 -18 -18 35 -33 42 -92 42 -59 0 -102 -23 -120 -65 -19 -47
		-18 -89 6 -136 29 -57 73 -81 134 -76 76 7 99 54 51 103 -14 14 -25 27 -25 29
		0 3 29 5 65 5 37 0 65 -4 65 -10 0 -5 -4 -10 -9 -10 -23 0 -40 -31 -34 -64 5
		-31 2 -37 -28 -55 -114 -69 -257 -6 -282 126 -12 64 31 139 98 169 38 17 142
		18 175 1z m1104 -16 c35 -32 33 -66 -4 -101 l-30 -28 30 -7 c20 -4 36 -17 46
		-36 14 -28 14 -33 -3 -67 -10 -20 -31 -43 -47 -51 -36 -17 -196 -21 -196 -5 0
		7 7 14 15 18 12 4 15 29 15 137 0 122 -1 131 -20 136 -11 3 -20 11 -20 18 0
		10 22 13 94 12 85 -2 97 -4 120 -26z m-2849 -111 c3 -6 -1 -13 -9 -16 -22 -8
		-20 -25 8 -74 l24 -42 21 47 c25 57 26 61 5 69 -26 10 -8 20 36 21 38 1 54
		-15 30 -30 -5 -3 -41 -68 -81 -145 -39 -76 -78 -141 -86 -144 -22 -9 -53 3
		-53 18 0 8 12 16 28 19 26 6 72 62 72 89 0 21 -80 159 -96 165 -28 10 -13 22
		34 26 26 2 50 4 54 5 4 1 10 -3 13 -8z m265 -4 c0 -8 -7 -16 -15 -20 -13 -5
		-12 -14 11 -58 l26 -52 25 49 c24 46 24 49 7 62 -23 17 -12 27 36 29 29 2 40
		-2 40 -12 0 -8 -4 -14 -9 -14 -5 0 -39 -61 -77 -135 -79 -158 -92 -174 -131
		-156 -27 13 -23 26 12 33 10 2 33 22 49 46 l30 43 -33 62 c-19 34 -47 76 -64
		94 l-30 32 49 4 c27 2 55 4 62 5 6 1 12 -4 12 -12z m308 2 c7 -7 12 -40 12
		-80 0 -62 2 -68 21 -68 23 0 21 -18 -4 -34 -12 -8 -22 -8 -35 1 -12 7 -24 8
		-33 2 -8 -5 -28 -9 -46 -9 -35 0 -66 31 -56 57 6 16 74 53 98 53 20 0 20 49 0
		56 -8 3 -26 -3 -41 -15 -27 -22 -44 -20 -44 4 0 33 102 59 128 33z m148 -2 c5
		-12 9 -12 32 0 38 19 69 17 92 -6 16 -16 20 -33 20 -84 0 -55 3 -66 23 -79 21
		-15 19 -16 -38 -16 -52 0 -58 1 -42 13 20 16 24 115 5 134 -17 17 -49 15 -76
		-4 -19 -13 -23 -23 -20 -62 2 -38 8 -49 26 -57 34 -15 26 -23 -29 -27 -55 -3
		-67 3 -44 22 22 19 20 116 -2 129 -17 10 -16 12 7 31 30 23 39 25 46 6z m345
		4 c16 -9 19 -22 19 -86 0 -63 3 -75 15 -71 26 11 27 -13 1 -24 -20 -9 -29 -9
		-41 1 -12 10 -19 10 -27 2 -16 -16 -60 -15 -82 1 -11 8 -17 23 -14 37 2 19 15
		29 56 45 42 16 52 24 52 43 0 29 -26 39 -49 18 -22 -20 -51 -21 -51 -2 0 15
		55 45 83 46 10 0 27 -5 38 -10z m149 -5 c0 -19 5 -19 35 1 30 19 55 12 55 -16
		0 -16 -6 -20 -35 -20 -39 0 -55 -20 -55 -69 0 -42 9 -61 31 -61 10 0 19 -4 19
		-9 0 -5 -25 -8 -55 -7 -54 1 -69 8 -40 20 11 4 15 21 15 61 0 40 -4 57 -15 61
		-22 9 -18 28 8 40 31 16 37 16 37 -1z m828 -18 c55 -51 0 -169 -80 -169 -46 0
		-74 16 -93 52 -19 38 -19 70 1 99 37 52 125 62 172 18z m1050 21 c7 -7 12 -40
		12 -80 0 -61 2 -68 20 -68 22 0 27 -15 8 -27 -7 -4 -45 -9 -84 -10 -60 -2 -75
		1 -89 17 -10 11 -15 26 -12 34 7 17 78 56 102 56 20 0 20 46 -1 54 -8 3 -28
		-4 -45 -16 -22 -16 -32 -19 -41 -10 -13 13 5 39 37 52 30 13 79 12 93 -2z
		m148 -3 c5 -13 8 -13 27 0 30 21 73 19 97 -5 16 -16 20 -33 20 -86 0 -58 2
		-67 20 -71 19 -5 25 -26 7 -24 -4 1 -27 1 -52 1 -25 0 -45 5 -45 10 0 6 7 10
		15 10 12 0 15 13 15 58 0 32 -5 63 -12 70 -17 17 -52 15 -77 -5 -19 -16 -21
		-24 -15 -67 5 -35 12 -50 26 -54 32 -8 19 -22 -21 -22 -22 0 -46 -3 -55 -6
		-10 -4 -16 -1 -16 9 0 8 7 17 15 21 11 4 15 21 15 60 0 46 -3 56 -20 61 -28 9
		-25 22 8 39 35 19 41 19 48 1z"/>
		<path d="M3587 2300 c-3 -25 -9 -99 -12 -165 -3 -66 -8 -149 -11 -185 -9 -88
		4 -70 27 37 18 89 24 268 10 328 -7 29 -8 28 -14 -15z"/>
		<path d="M2212 1730 c-12 -5 -27 -21 -34 -35 -9 -21 -8 -28 7 -45 21 -24 48
		-26 65 -5 17 20 5 33 -25 27 -28 -5 -36 21 -9 32 26 10 33 7 50 -19 16 -24 16
		-27 -2 -47 -19 -21 -19 -21 6 -14 14 4 35 7 47 7 37 -1 36 17 -4 58 -42 44
		-67 54 -101 41z"/>
		<path d="M2676 1688 c-43 -50 -44 -59 -8 -57 15 0 38 -3 52 -7 25 -7 25 -7 6
		14 -18 20 -18 23 -2 47 20 30 59 31 64 1 3 -16 0 -18 -22 -12 -21 5 -26 3 -26
		-13 0 -17 18 -31 41 -31 5 0 16 11 25 25 15 23 15 27 0 50 -13 20 -25 25 -55
		25 -34 0 -45 -6 -75 -42z"/>
		<path d="M2295 1605 c-62 -15 -95 -32 -95 -49 0 -20 118 -75 176 -82 58 -7
		105 8 65 21 -12 3 -35 31 -52 61 -17 30 -34 55 -37 57 -4 2 -30 -2 -57 -8z"/>
		<path d="M2610 1569 c-14 -28 -35 -59 -48 -70 -21 -16 -22 -20 -8 -25 32 -12
		121 7 178 39 63 34 69 45 37 65 -17 11 -117 42 -133 42 -1 0 -13 -23 -26 -51z"/>
		<path d="M2387 1590 c3 -11 23 -36 44 -55 55 -49 85 -47 138 10 22 24 41 49
		41 55 0 23 -73 1 -103 -31 -21 -23 -39 -25 -31 -4 4 10 -5 20 -30 30 -49 21
		-65 19 -59 -5z"/>
		<path d="M1338 2315 c-15 -45 -19 -165 -9 -246 11 -85 38 -195 47 -187 2 3 -1
		63 -6 134 -6 71 -14 172 -18 224 -4 52 -11 86 -14 75z"/>
		<path d="M1967 2693 c-25 -47 -117 -270 -117 -282 0 -7 43 -11 135 -11 74 0
		135 4 135 9 0 8 -129 302 -135 309 -2 2 -10 -9 -18 -25z"/>
		<path d="M3206 999 c-23 -33 -20 -54 12 -90 22 -25 32 -29 53 -24 22 6 27 14
		33 53 7 53 -3 68 -50 78 -26 5 -35 2 -48 -17z"/>
		<path d="M554 1053 c-10 -26 -20 -51 -22 -55 -2 -5 19 -8 47 -8 l50 0 -20 48
		c-11 26 -24 51 -28 55 -4 4 -16 -14 -27 -40z"/>
		<path d="M3630 1095 c0 -60 9 -66 64 -45 21 8 26 16 26 44 0 39 -20 56 -64 56
		-25 0 -26 -3 -26 -55z"/>
		<path d="M3630 945 l0 -65 43 0 c66 0 94 40 66 93 -16 31 -28 37 -71 37 l-38
		0 0 -65z"/>
		<path d="M1423 933 c-26 -5 -47 -28 -38 -43 3 -5 19 -10 36 -10 26 0 29 3 29
		30 0 17 -1 29 -2 29 -2 -1 -13 -4 -25 -6z"/>
		<path d="M1912 930 c-48 -20 -37 -62 14 -52 19 3 24 11 24 33 0 31 -3 33 -38
		19z"/>
		<path d="M2814 985 c-20 -31 -9 -71 28 -98 22 -16 29 -17 49 -7 31 16 39 29
		39 60 0 66 -81 98 -116 45z"/>
		<path d="M3932 924 c-39 -16 -38 -38 1 -42 28 -3 42 13 35 42 -3 13 -7 13 -36
		0z"/>
		<path d="M4170 4980 c-6 -11 -10 -31 -8 -43 3 -17 7 -14 16 17 13 45 9 58 -8
		26z"/>
		<path d="M4200 4925 c0 -8 -9 -15 -20 -15 -17 0 -19 -2 -8 -14 7 -8 15 -10 16
		-5 2 5 8 7 13 3 5 -3 9 6 9 20 0 14 -2 26 -5 26 -3 0 -5 -7 -5 -15z"/>
		<path d="M4090 4664 c0 -8 5 -12 10 -9 6 3 10 10 10 16 0 5 -4 9 -10 9 -5 0
		-10 -7 -10 -16z"/>
		<path d="M3810 4576 c0 -2 7 -6 15 -10 8 -3 15 -1 15 4 0 6 -7 10 -15 10 -8 0
		-15 -2 -15 -4z"/>
		<path d="M3813 4535 c0 -8 4 -15 9 -15 16 0 8 -29 -9 -33 -11 -3 -7 -5 10 -6
		28 -1 31 7 21 47 -7 25 -31 30 -31 7z"/>
		<path d="M3880 4429 c0 -5 5 -7 10 -4 6 3 10 8 10 11 0 2 -4 4 -10 4 -5 0 -10
		-5 -10 -11z"/>
		<path d="M3750 4391 c0 -6 4 -13 10 -16 6 -3 7 1 4 9 -7 18 -14 21 -14 7z"/>
		<path d="M3790 4380 c0 -5 14 -10 31 -10 17 0 28 4 24 10 -3 6 -17 10 -31 10
		-13 0 -24 -4 -24 -10z"/>
		<path d="M3700 4150 c0 -5 5 -10 11 -10 5 0 7 5 4 10 -3 6 -8 10 -11 10 -2 0
		-4 -4 -4 -10z"/>
		<path d="M3514 3983 c4 -5 12 -9 17 -9 5 -1 10 -2 12 -4 10 -9 44 -4 44 7 0
		16 -13 17 -23 2 -4 -8 -9 -8 -17 0 -6 6 -18 11 -26 11 -8 0 -11 -3 -7 -7z"/>
		<path d="M3492 3913 c-5 -10 -7 -24 -5 -30 3 -7 0 -13 -5 -13 -16 0 -56 -61
		-46 -70 5 -4 19 -11 32 -15 27 -8 30 10 5 38 -17 18 -17 19 2 33 11 8 25 12
		31 10 7 -3 15 2 18 10 10 26 7 34 -11 27 -12 -5 -15 -2 -10 10 8 22 0 22 -11
		0z"/>
		<path d="M4544 3894 c3 -9 6 -20 6 -25 0 -6 4 -8 9 -4 15 8 9 45 -7 45 -9 0
		-12 -6 -8 -16z"/>
		<path d="M3675 3799 c-4 -6 -5 -12 -2 -15 2 -3 7 2 10 11 7 17 1 20 -8 4z"/>
		<path d="M4591 3784 c0 -11 3 -14 6 -6 3 7 2 16 -1 19 -3 4 -6 -2 -5 -13z"/>
		<path d="M4472 3770 c10 -6 25 -7 40 -1 20 9 18 10 -17 10 -31 0 -36 -2 -23
		-9z"/>
		<path d="M3590 3686 c0 -19 4 -37 9 -40 4 -3 6 6 3 21 -3 18 -1 24 7 19 16
		-10 14 3 -4 20 -13 14 -15 12 -15 -20z"/>
		<path d="M4070 3660 c0 -5 5 -10 10 -10 6 0 10 5 10 10 0 6 -4 10 -10 10 -5 0
		-10 -4 -10 -10z"/>
		<path d="M3670 3656 c0 -2 7 -6 15 -10 8 -3 15 -1 15 4 0 6 -7 10 -15 10 -8 0
		-15 -2 -15 -4z"/>
		<path d="M4218 3653 c7 -3 16 -2 19 1 4 3 -2 6 -13 5 -11 0 -14 -3 -6 -6z"/>
		<path d="M4050 3640 c0 -5 5 -10 11 -10 5 0 7 5 4 10 -3 6 -8 10 -11 10 -2 0
		-4 -4 -4 -10z"/>
		<path d="M3684 3562 l-2 -47 12 40 c12 39 12 55 -2 55 -4 0 -8 -21 -8 -48z"/>
		<path d="M3840 3595 c0 -9 6 -12 15 -9 8 4 15 10 15 15 0 5 -7 9 -15 9 -8 0
		-15 -7 -15 -15z"/>
		<path d="M3792 3580 c0 -14 2 -19 5 -12 2 6 2 18 0 25 -3 6 -5 1 -5 -13z"/>
		<path d="M3880 3570 c0 -5 5 -10 10 -10 6 0 10 5 10 10 0 6 -4 10 -10 10 -5 0
		-10 -4 -10 -10z"/>
		<path d="M3571 3544 c0 -11 3 -14 6 -6 3 7 2 16 -1 19 -3 4 -6 -2 -5 -13z"/>
		<path d="M4315 3550 c3 -5 17 -10 31 -10 13 0 24 5 24 10 0 6 -14 10 -31 10
		-17 0 -28 -4 -24 -10z"/>
		<path d="M3958 3528 c-2 -7 -1 -29 2 -48 l6 -35 5 38 c5 38 -4 71 -13 45z"/>
		<path d="M3996 3477 c3 -112 5 -127 14 -127 11 0 14 73 3 84 -4 4 -6 22 -5 41
		2 18 0 35 -5 38 -4 3 -8 -14 -7 -36z"/>
		<path d="M4090 3486 c0 -36 14 -56 23 -33 7 18 -3 67 -14 67 -5 0 -9 -15 -9
		-34z"/>
		<path d="M3846 3501 c-4 -7 -5 -15 -2 -18 9 -9 19 4 14 18 -4 11 -6 11 -12 0z"/>
		<path d="M4020 3500 c0 -5 5 -10 10 -10 6 0 10 5 10 10 0 6 -4 10 -10 10 -5 0
		-10 -4 -10 -10z"/>
		<path d="M3853 3473 c-22 -8 -14 -23 12 -21 14 1 24 7 22 12 -4 12 -18 16 -34
		9z"/>
		<path d="M4245 3450 c-3 -4 6 -10 20 -12 14 -3 25 -2 25 2 0 11 -39 20 -45 10z"/>
		<path d="M3702 3408 c2 -6 10 -14 16 -16 7 -2 10 2 6 12 -7 18 -28 22 -22 4z"/>
		<path d="M4248 3413 c7 -3 16 -2 19 1 4 3 -2 6 -13 5 -11 0 -14 -3 -6 -6z"/>
		<path d="M3880 3375 c0 -19 2 -35 4 -35 2 0 6 16 8 35 2 19 0 35 -4 35 -4 0
		-8 -16 -8 -35z"/>
		<path d="M4152 3370 c0 -19 2 -27 5 -17 2 9 2 25 0 35 -3 9 -5 1 -5 -18z"/>
		<path d="M3690 3360 c0 -5 5 -10 10 -10 6 0 10 5 10 10 0 6 -4 10 -10 10 -5 0
		-10 -4 -10 -10z"/>
		<path d="M4000 3277 c0 -13 -6 -29 -12 -36 -10 -11 -8 -10 10 0 22 14 31 59
		12 59 -5 0 -10 -10 -10 -23z"/>
		<path d="M4210 3260 c0 -5 5 -10 10 -10 6 0 10 5 10 10 0 6 -4 10 -10 10 -5 0
		-10 -4 -10 -10z"/>
		<path d="M3786 3252 c-2 -4 0 -14 5 -22 8 -13 10 -13 18 0 10 15 6 30 -9 30
		-5 0 -11 -4 -14 -8z"/>
		<path d="M3943 3241 c4 -18 2 -21 -10 -17 -13 5 -14 4 -3 -9 7 -8 16 -15 21
		-15 13 0 11 48 -3 56 -8 5 -9 0 -5 -15z"/>
		<path d="M3691 3240 c9 -5 26 -7 39 -5 40 8 35 15 -11 15 -32 -1 -40 -3 -28
		-10z"/>
		<path d="M4155 3239 c-4 -6 -5 -12 -2 -15 2 -3 7 2 10 11 7 17 1 20 -8 4z"/>
		<path d="M3830 3201 c0 -6 4 -13 10 -16 6 -3 7 1 4 9 -7 18 -14 21 -14 7z"/>
		<path d="M4160 3170 c0 -5 7 -10 16 -10 8 0 12 5 9 10 -3 6 -10 10 -16 10 -5
		0 -9 -4 -9 -10z"/>
	</g>
</svg>
